<svg xmlns="http://www.w3.org/2000/svg" width="760" height="500" viewBox="0 0 760 500" role="img" aria-label="Commit topic map">
<rect width="100%" height="100%" rx="18" fill="#ffffff" />
<rect x="1" y="1" width="758" height="498" rx="18" fill="none" stroke="#d0d7de" />
<text x="32" y="48" font-family="Inter, ui-sans-serif, system-ui, -apple-system, Segoe UI, sans-serif" font-size="30" font-weight="800" fill="#24292f">Commit Topic Map</text>
<text x="32" y="78" font-family="Inter, ui-sans-serif, system-ui, -apple-system, Segoe UI, sans-serif" font-size="17" font-weight="400" fill="#57606a">1,833 commits · 10 public repos · 17 private repos</text>
<text x="32" y="104" font-family="Inter, ui-sans-serif, system-ui, -apple-system, Segoe UI, sans-serif" font-size="14" font-weight="400" fill="#6e7781">Raw private messages stay local; chart uses aggregate counts.</text>
<text x="32" y="142" font-family="Inter, ui-sans-serif, system-ui, -apple-system, Segoe UI, sans-serif" font-size="17" font-weight="600" fill="#24292f">Knowledge &amp; Writing</text>
<rect x="282" y="128" width="354" height="16" rx="4" fill="#eef2f7" />
<rect x="282" y="128" width="103" height="16" rx="4" fill="#2f6f9f" />
<text x="650" y="142" font-family="Inter, ui-sans-serif, system-ui, -apple-system, Segoe UI, sans-serif" font-size="15" font-weight="400" fill="#57606a">533 · 29.1%</text>
<text x="32" y="180" font-family="Inter, ui-sans-serif, system-ui, -apple-system, Segoe UI, sans-serif" font-size="17" font-weight="600" fill="#24292f">Quant Research Infra</text>
<rect x="282" y="166" width="354" height="16" rx="4" fill="#eef2f7" />
<rect x="282" y="166" width="102" height="16" rx="4" fill="#9a6b00" />
<text x="650" y="180" font-family="Inter, ui-sans-serif, system-ui, -apple-system, Segoe UI, sans-serif" font-size="15" font-weight="400" fill="#57606a">527 · 28.8%</text>
<text x="32" y="218" font-family="Inter, ui-sans-serif, system-ui, -apple-system, Segoe UI, sans-serif" font-size="17" font-weight="600" fill="#24292f">NL-&gt;DAX &amp; Semantic Models</text>
<rect x="282" y="204" width="354" height="16" rx="4" fill="#eef2f7" />
<rect x="282" y="204" width="51" height="16" rx="4" fill="#0b7a75" />
<text x="650" y="218" font-family="Inter, ui-sans-serif, system-ui, -apple-system, Segoe UI, sans-serif" font-size="15" font-weight="400" fill="#57606a">265 · 14.5%</text>
<text x="32" y="256" font-family="Inter, ui-sans-serif, system-ui, -apple-system, Segoe UI, sans-serif" font-size="17" font-weight="600" fill="#24292f">Agent Workflows</text>
<rect x="282" y="242" width="354" height="16" rx="4" fill="#eef2f7" />
<rect x="282" y="242" width="46" height="16" rx="4" fill="#6f42c1" />
<text x="650" y="256" font-family="Inter, ui-sans-serif, system-ui, -apple-system, Segoe UI, sans-serif" font-size="15" font-weight="400" fill="#57606a">236 · 12.9%</text>
<text x="32" y="294" font-family="Inter, ui-sans-serif, system-ui, -apple-system, Segoe UI, sans-serif" font-size="17" font-weight="600" fill="#24292f">Data/Product Infra</text>
<rect x="282" y="280" width="354" height="16" rx="4" fill="#eef2f7" />
<rect x="282" y="280" width="20" height="16" rx="4" fill="#1f6feb" />
<text x="650" y="294" font-family="Inter, ui-sans-serif, system-ui, -apple-system, Segoe UI, sans-serif" font-size="15" font-weight="400" fill="#57606a">104 · 5.7%</text>
<text x="32" y="332" font-family="Inter, ui-sans-serif, system-ui, -apple-system, Segoe UI, sans-serif" font-size="17" font-weight="600" fill="#24292f">Publishing Platform</text>
<rect x="282" y="318" width="354" height="16" rx="4" fill="#eef2f7" />
<rect x="282" y="318" width="17" height="16" rx="4" fill="#2f7d32" />
<text x="650" y="332" font-family="Inter, ui-sans-serif, system-ui, -apple-system, Segoe UI, sans-serif" font-size="15" font-weight="400" fill="#57606a">89 · 4.9%</text>
<text x="32" y="370" font-family="Inter, ui-sans-serif, system-ui, -apple-system, Segoe UI, sans-serif" font-size="17" font-weight="600" fill="#24292f">Static Analysis Tools</text>
<rect x="282" y="356" width="354" height="16" rx="4" fill="#eef2f7" />
<rect x="282" y="356" width="15" height="16" rx="4" fill="#8b3a3a" />
<text x="650" y="370" font-family="Inter, ui-sans-serif, system-ui, -apple-system, Segoe UI, sans-serif" font-size="15" font-weight="400" fill="#57606a">76 · 4.1%</text>
<text x="32" y="408" font-family="Inter, ui-sans-serif, system-ui, -apple-system, Segoe UI, sans-serif" font-size="17" font-weight="600" fill="#24292f">Repo Hygiene</text>
<rect x="282" y="394" width="354" height="16" rx="4" fill="#eef2f7" />
<rect x="282" y="394" width="4" height="16" rx="4" fill="#666666" />
<text x="650" y="408" font-family="Inter, ui-sans-serif, system-ui, -apple-system, Segoe UI, sans-serif" font-size="15" font-weight="400" fill="#57606a">3 · 0.2%</text>
<text x="32" y="452" font-family="Inter, ui-sans-serif, system-ui, -apple-system, Segoe UI, sans-serif" font-size="15" font-weight="600" fill="#57606a">Recent 12-month dominant topic strip</text>
<rect x="32" y="464" width="53" height="28" rx="5" fill="#6f42c1" opacity="0.64"><title>2025-06 · 113 commits</title></rect>
<rect x="90" y="464" width="53" height="28" rx="5" fill="#9a6b00" opacity="1.00"><title>2025-07 · 249 commits</title></rect>
<rect x="148" y="464" width="53" height="28" rx="5" fill="#9a6b00" opacity="0.61"><title>2025-08 · 98 commits</title></rect>
<rect x="206" y="464" width="53" height="28" rx="5" fill="#1f6feb" opacity="0.45"><title>2025-09 · 39 commits</title></rect>
<rect x="264" y="464" width="53" height="28" rx="5" fill="#1f6feb" opacity="0.72"><title>2025-10 · 140 commits</title></rect>
<rect x="322" y="464" width="53" height="28" rx="5" fill="#0b7a75" opacity="0.52"><title>2025-11 · 65 commits</title></rect>
<rect x="380" y="464" width="53" height="28" rx="5" fill="#0b7a75" opacity="0.46"><title>2025-12 · 44 commits</title></rect>
<rect x="438" y="464" width="53" height="28" rx="5" fill="#0b7a75" opacity="0.48"><title>2026-01 · 51 commits</title></rect>
<rect x="496" y="464" width="53" height="28" rx="5" fill="#9a6b00" opacity="0.42"><title>2026-02 · 28 commits</title></rect>
<rect x="554" y="464" width="53" height="28" rx="5" fill="#0b7a75" opacity="0.58"><title>2026-03 · 88 commits</title></rect>
<rect x="612" y="464" width="53" height="28" rx="5" fill="#6f42c1" opacity="0.68"><title>2026-04 · 125 commits</title></rect>
<rect x="670" y="464" width="53" height="28" rx="5" fill="#2f7d32" opacity="0.49"><title>2026-05 · 52 commits</title></rect>
</svg>
