<svg xmlns="http://www.w3.org/2000/svg" width="880" height="660" viewBox="0 0 880 660" role="img" aria-label="Monthly commit themes over the past 12 months">
<rect width="100%" height="100%" fill="#ffffff"/>
<defs>
<linearGradient id="g_agent-orchestration" x1="0" y1="0" x2="0" y2="1"><stop offset="0%" stop-color="#8e6bce"/><stop offset="100%" stop-color="#6f42c1"/></linearGradient>
<linearGradient id="g_llm-eval-contracts" x1="0" y1="0" x2="0" y2="1"><stop offset="0%" stop-color="#cd64a2"/><stop offset="100%" stop-color="#bf3989"/></linearGradient>
<linearGradient id="g_quant-optuna" x1="0" y1="0" x2="0" y2="1"><stop offset="0%" stop-color="#4c9b63"/><stop offset="100%" stop-color="#1a7f37"/></linearGradient>
<linearGradient id="g_live-trading" x1="0" y1="0" x2="0" y2="1"><stop offset="0%" stop-color="#5bb874"/><stop offset="100%" stop-color="#2da44e"/></linearGradient>
<linearGradient id="g_backtest-mcs" x1="0" y1="0" x2="0" y2="1"><stop offset="0%" stop-color="#cda138"/><stop offset="100%" stop-color="#bf8700"/></linearGradient>
<linearGradient id="g_timeseries-ml" x1="0" y1="0" x2="0" y2="1"><stop offset="0%" stop-color="#4d989e"/><stop offset="100%" stop-color="#1b7c83"/></linearGradient>
<linearGradient id="g_semantic-dax" x1="0" y1="0" x2="0" y2="1"><stop offset="0%" stop-color="#3f8ae2"/><stop offset="100%" stop-color="#0969da"/></linearGradient>
<linearGradient id="g_data-pipeline" x1="0" y1="0" x2="0" y2="1"><stop offset="0%" stop-color="#51a4ff"/><stop offset="100%" stop-color="#218bff"/></linearGradient>
<linearGradient id="g_ast-tooling" x1="0" y1="0" x2="0" y2="1"><stop offset="0%" stop-color="#ca7338"/><stop offset="100%" stop-color="#bc4c00"/></linearGradient>
<linearGradient id="g_content-methodology" x1="0" y1="0" x2="0" y2="1"><stop offset="0%" stop-color="#7b828a"/><stop offset="100%" stop-color="#57606a"/></linearGradient>
</defs>
<text x="64.00" y="52.00" font-family="ui-sans-serif, -apple-system, BlinkMacSystemFont, 'Segoe UI', Helvetica, Arial, sans-serif" font-size="22" font-weight="700" fill="#1f2328" text-anchor="start">What I shipped — past 12 months</text>
<text x="64.00" y="76.00" font-family="ui-sans-serif, -apple-system, BlinkMacSystemFont, 'Segoe UI', Helvetica, Arial, sans-serif" font-size="12" font-weight="400" fill="#656d76" text-anchor="start">Across 27 owned repos · 10 working themes · merge commits excluded · regenerated deterministically</text>
<text x="848.00" y="56.00" font-family="ui-sans-serif, -apple-system, BlinkMacSystemFont, 'Segoe UI', Helvetica, Arial, sans-serif" font-size="36" font-weight="800" fill="#1f2328" text-anchor="end">936</text>
<text x="848.00" y="76.00" font-family="ui-sans-serif, -apple-system, BlinkMacSystemFont, 'Segoe UI', Helvetica, Arial, sans-serif" font-size="11" font-weight="400" fill="#656d76" text-anchor="end">commits this year</text>
<line x1="64.00" y1="396.00" x2="848.00" y2="396.00" stroke="#d0d7de" stroke-dasharray="2 3" stroke-width="0.5"/>
<text x="56.00" y="399.00" font-family="ui-sans-serif, -apple-system, BlinkMacSystemFont, 'Segoe UI', Helvetica, Arial, sans-serif" font-size="10" font-weight="400" fill="#656d76" text-anchor="end">0</text>
<line x1="64.00" y1="340.00" x2="848.00" y2="340.00" stroke="#d0d7de" stroke-dasharray="2 3" stroke-width="0.5"/>
<text x="56.00" y="343.00" font-family="ui-sans-serif, -apple-system, BlinkMacSystemFont, 'Segoe UI', Helvetica, Arial, sans-serif" font-size="10" font-weight="400" fill="#656d76" text-anchor="end">50</text>
<line x1="64.00" y1="284.00" x2="848.00" y2="284.00" stroke="#d0d7de" stroke-dasharray="2 3" stroke-width="0.5"/>
<text x="56.00" y="287.00" font-family="ui-sans-serif, -apple-system, BlinkMacSystemFont, 'Segoe UI', Helvetica, Arial, sans-serif" font-size="10" font-weight="400" fill="#656d76" text-anchor="end">100</text>
<line x1="64.00" y1="228.00" x2="848.00" y2="228.00" stroke="#d0d7de" stroke-dasharray="2 3" stroke-width="0.5"/>
<text x="56.00" y="231.00" font-family="ui-sans-serif, -apple-system, BlinkMacSystemFont, 'Segoe UI', Helvetica, Arial, sans-serif" font-size="10" font-weight="400" fill="#656d76" text-anchor="end">150</text>
<line x1="64.00" y1="172.00" x2="848.00" y2="172.00" stroke="#d0d7de" stroke-dasharray="2 3" stroke-width="0.5"/>
<text x="56.00" y="175.00" font-family="ui-sans-serif, -apple-system, BlinkMacSystemFont, 'Segoe UI', Helvetica, Arial, sans-serif" font-size="10" font-weight="400" fill="#656d76" text-anchor="end">200</text>
<line x1="64.00" y1="116.00" x2="848.00" y2="116.00" stroke="#d0d7de" stroke-dasharray="2 3" stroke-width="0.5"/>
<text x="56.00" y="119.00" font-family="ui-sans-serif, -apple-system, BlinkMacSystemFont, 'Segoe UI', Helvetica, Arial, sans-serif" font-size="10" font-weight="400" fill="#656d76" text-anchor="end">250</text>
<rect x="64.00" y="335.52" width="58.00" height="60.48" fill="url(#g_agent-orchestration)"><title>Agent Orchestration: 54 commits in 2025-06</title></rect>
<rect x="64.00" y="332.16" width="58.00" height="3.36" fill="url(#g_quant-optuna)"><title>Quant Strategy &amp; Optuna: 3 commits in 2025-06</title></rect>
<path d="M64.00,332.16 L64.00,272.44 Q64.00,269.44 67.00,269.44 L119.00,269.44 Q122.00,269.44 122.00,272.44 L122.00,332.16 Z" fill="url(#g_content-methodology)"><title>Content &amp; Methodology: 56 commits in 2025-06</title></path>
<text x="93.00" y="265.44" font-family="ui-sans-serif, -apple-system, BlinkMacSystemFont, 'Segoe UI', Helvetica, Arial, sans-serif" font-size="10" font-weight="600" fill="#1f2328" text-anchor="middle">113</text>
<text x="93.00" y="253.44" font-family="ui-sans-serif, -apple-system, BlinkMacSystemFont, 'Segoe UI', Helvetica, Arial, sans-serif" font-size="9" font-weight="600" fill="#57606a" text-anchor="middle">Content</text>
<text x="93.00" y="414.00" font-family="ui-sans-serif, -apple-system, BlinkMacSystemFont, 'Segoe UI', Helvetica, Arial, sans-serif" font-size="11" font-weight="500" fill="#1f2328" text-anchor="middle">Jun</text>
<text x="93.00" y="428.00" font-family="ui-sans-serif, -apple-system, BlinkMacSystemFont, 'Segoe UI', Helvetica, Arial, sans-serif" font-size="9" font-weight="400" fill="#8c959f" text-anchor="middle">&#x27;25</text>
<rect x="130.00" y="323.20" width="58.00" height="72.80" fill="url(#g_agent-orchestration)"><title>Agent Orchestration: 65 commits in 2025-07</title></rect>
<rect x="130.00" y="278.40" width="58.00" height="44.80" fill="url(#g_quant-optuna)"><title>Quant Strategy &amp; Optuna: 40 commits in 2025-07</title></rect>
<rect x="130.00" y="256.00" width="58.00" height="22.40" fill="url(#g_live-trading)"><title>Live Trading Ops: 20 commits in 2025-07</title></rect>
<rect x="130.00" y="254.88" width="58.00" height="1.12" fill="url(#g_backtest-mcs)"><title>Backtest &amp; MCS Research: 1 commits in 2025-07</title></rect>
<rect x="130.00" y="222.40" width="58.00" height="32.48" fill="url(#g_timeseries-ml)"><title>Time-Series ML: 29 commits in 2025-07</title></rect>
<rect x="130.00" y="164.16" width="58.00" height="58.24" fill="url(#g_ast-tooling)"><title>AST &amp; Code Tooling: 52 commits in 2025-07</title></rect>
<rect x="130.00" y="160.80" width="58.00" height="3.36" fill="url(#g_content-methodology)"><title>Content &amp; Methodology: 3 commits in 2025-07</title></rect>
<text x="159.00" y="156.80" font-family="ui-sans-serif, -apple-system, BlinkMacSystemFont, 'Segoe UI', Helvetica, Arial, sans-serif" font-size="10" font-weight="600" fill="#1f2328" text-anchor="middle">210</text>
<text x="159.00" y="144.80" font-family="ui-sans-serif, -apple-system, BlinkMacSystemFont, 'Segoe UI', Helvetica, Arial, sans-serif" font-size="9" font-weight="600" fill="#6f42c1" text-anchor="middle">Agent</text>
<text x="159.00" y="414.00" font-family="ui-sans-serif, -apple-system, BlinkMacSystemFont, 'Segoe UI', Helvetica, Arial, sans-serif" font-size="11" font-weight="500" fill="#1f2328" text-anchor="middle">Jul</text>
<rect x="196.00" y="303.04" width="58.00" height="92.96" fill="url(#g_quant-optuna)"><title>Quant Strategy &amp; Optuna: 83 commits in 2025-08</title></rect>
<rect x="196.00" y="298.56" width="58.00" height="4.48" fill="url(#g_live-trading)"><title>Live Trading Ops: 4 commits in 2025-08</title></rect>
<path d="M196.00,298.56 L196.00,292.60 Q196.00,289.60 199.00,289.60 L251.00,289.60 Q254.00,289.60 254.00,292.60 L254.00,298.56 Z" fill="url(#g_timeseries-ml)"><title>Time-Series ML: 8 commits in 2025-08</title></path>
<text x="225.00" y="285.60" font-family="ui-sans-serif, -apple-system, BlinkMacSystemFont, 'Segoe UI', Helvetica, Arial, sans-serif" font-size="10" font-weight="600" fill="#1f2328" text-anchor="middle">95</text>
<text x="225.00" y="273.60" font-family="ui-sans-serif, -apple-system, BlinkMacSystemFont, 'Segoe UI', Helvetica, Arial, sans-serif" font-size="9" font-weight="600" fill="#1a7f37" text-anchor="middle">Quant</text>
<text x="225.00" y="414.00" font-family="ui-sans-serif, -apple-system, BlinkMacSystemFont, 'Segoe UI', Helvetica, Arial, sans-serif" font-size="11" font-weight="500" fill="#1f2328" text-anchor="middle">Aug</text>
<rect x="262.00" y="380.32" width="58.00" height="15.68" fill="url(#g_quant-optuna)"><title>Quant Strategy &amp; Optuna: 14 commits in 2025-09</title></rect>
<rect x="262.00" y="378.08" width="58.00" height="2.24" fill="url(#g_live-trading)"><title>Live Trading Ops: 2 commits in 2025-09</title></rect>
<path d="M262.00,378.08 L262.00,362.04 Q262.00,359.04 265.00,359.04 L317.00,359.04 Q320.00,359.04 320.00,362.04 L320.00,378.08 Z" fill="url(#g_data-pipeline)"><title>Data Pipeline &amp; Schema: 17 commits in 2025-09</title></path>
<text x="291.00" y="355.04" font-family="ui-sans-serif, -apple-system, BlinkMacSystemFont, 'Segoe UI', Helvetica, Arial, sans-serif" font-size="10" font-weight="600" fill="#1f2328" text-anchor="middle">33</text>
<text x="291.00" y="343.04" font-family="ui-sans-serif, -apple-system, BlinkMacSystemFont, 'Segoe UI', Helvetica, Arial, sans-serif" font-size="9" font-weight="600" fill="#218bff" text-anchor="middle">Data</text>
<text x="291.00" y="414.00" font-family="ui-sans-serif, -apple-system, BlinkMacSystemFont, 'Segoe UI', Helvetica, Arial, sans-serif" font-size="11" font-weight="500" fill="#1f2328" text-anchor="middle">Sep</text>
<rect x="328.00" y="394.88" width="58.00" height="1.12" fill="url(#g_quant-optuna)"><title>Quant Strategy &amp; Optuna: 1 commits in 2025-10</title></rect>
<rect x="328.00" y="353.44" width="58.00" height="41.44" fill="url(#g_backtest-mcs)"><title>Backtest &amp; MCS Research: 37 commits in 2025-10</title></rect>
<rect x="328.00" y="347.84" width="58.00" height="5.60" fill="url(#g_timeseries-ml)"><title>Time-Series ML: 5 commits in 2025-10</title></rect>
<rect x="328.00" y="319.84" width="58.00" height="28.00" fill="url(#g_semantic-dax)"><title>Semantic Model &amp; DAX: 25 commits in 2025-10</title></rect>
<path d="M328.00,319.84 L328.00,266.84 Q328.00,263.84 331.00,263.84 L383.00,263.84 Q386.00,263.84 386.00,266.84 L386.00,319.84 Z" fill="url(#g_data-pipeline)"><title>Data Pipeline &amp; Schema: 50 commits in 2025-10</title></path>
<text x="357.00" y="259.84" font-family="ui-sans-serif, -apple-system, BlinkMacSystemFont, 'Segoe UI', Helvetica, Arial, sans-serif" font-size="10" font-weight="600" fill="#1f2328" text-anchor="middle">118</text>
<text x="357.00" y="247.84" font-family="ui-sans-serif, -apple-system, BlinkMacSystemFont, 'Segoe UI', Helvetica, Arial, sans-serif" font-size="9" font-weight="600" fill="#218bff" text-anchor="middle">Data</text>
<text x="357.00" y="414.00" font-family="ui-sans-serif, -apple-system, BlinkMacSystemFont, 'Segoe UI', Helvetica, Arial, sans-serif" font-size="11" font-weight="500" fill="#1f2328" text-anchor="middle">Oct</text>
<rect x="394.00" y="391.52" width="58.00" height="4.48" fill="url(#g_backtest-mcs)"><title>Backtest &amp; MCS Research: 4 commits in 2025-11</title></rect>
<path d="M394.00,391.52 L394.00,338.52 Q394.00,335.52 397.00,335.52 L449.00,335.52 Q452.00,335.52 452.00,338.52 L452.00,391.52 Z" fill="url(#g_semantic-dax)"><title>Semantic Model &amp; DAX: 50 commits in 2025-11</title></path>
<text x="423.00" y="331.52" font-family="ui-sans-serif, -apple-system, BlinkMacSystemFont, 'Segoe UI', Helvetica, Arial, sans-serif" font-size="10" font-weight="600" fill="#1f2328" text-anchor="middle">54</text>
<text x="423.00" y="319.52" font-family="ui-sans-serif, -apple-system, BlinkMacSystemFont, 'Segoe UI', Helvetica, Arial, sans-serif" font-size="9" font-weight="600" fill="#0969da" text-anchor="middle">Semantic</text>
<text x="423.00" y="414.00" font-family="ui-sans-serif, -apple-system, BlinkMacSystemFont, 'Segoe UI', Helvetica, Arial, sans-serif" font-size="11" font-weight="500" fill="#1f2328" text-anchor="middle">Nov</text>
<rect x="460.00" y="387.04" width="58.00" height="8.96" fill="url(#g_agent-orchestration)"><title>Agent Orchestration: 8 commits in 2025-12</title></rect>
<rect x="460.00" y="380.32" width="58.00" height="6.72" fill="url(#g_backtest-mcs)"><title>Backtest &amp; MCS Research: 6 commits in 2025-12</title></rect>
<path d="M460.00,380.32 L460.00,364.28 Q460.00,361.28 463.00,361.28 L515.00,361.28 Q518.00,361.28 518.00,364.28 L518.00,380.32 Z" fill="url(#g_semantic-dax)"><title>Semantic Model &amp; DAX: 17 commits in 2025-12</title></path>
<text x="489.00" y="357.28" font-family="ui-sans-serif, -apple-system, BlinkMacSystemFont, 'Segoe UI', Helvetica, Arial, sans-serif" font-size="10" font-weight="600" fill="#1f2328" text-anchor="middle">31</text>
<text x="489.00" y="345.28" font-family="ui-sans-serif, -apple-system, BlinkMacSystemFont, 'Segoe UI', Helvetica, Arial, sans-serif" font-size="9" font-weight="600" fill="#0969da" text-anchor="middle">Semantic</text>
<text x="489.00" y="414.00" font-family="ui-sans-serif, -apple-system, BlinkMacSystemFont, 'Segoe UI', Helvetica, Arial, sans-serif" font-size="11" font-weight="500" fill="#1f2328" text-anchor="middle">Dec</text>
<line x1="522.00" y1="108.00" x2="522.00" y2="408.00" stroke="#8c959f" stroke-dasharray="3 3" stroke-width="0.6" opacity="0.55"/>
<rect x="526.00" y="390.40" width="58.00" height="5.60" fill="url(#g_quant-optuna)"><title>Quant Strategy &amp; Optuna: 5 commits in 2026-01</title></rect>
<path d="M526.00,390.40 L526.00,357.56 Q526.00,354.56 529.00,354.56 L581.00,354.56 Q584.00,354.56 584.00,357.56 L584.00,390.40 Z" fill="url(#g_semantic-dax)"><title>Semantic Model &amp; DAX: 32 commits in 2026-01</title></path>
<text x="555.00" y="350.56" font-family="ui-sans-serif, -apple-system, BlinkMacSystemFont, 'Segoe UI', Helvetica, Arial, sans-serif" font-size="10" font-weight="600" fill="#1f2328" text-anchor="middle">37</text>
<text x="555.00" y="338.56" font-family="ui-sans-serif, -apple-system, BlinkMacSystemFont, 'Segoe UI', Helvetica, Arial, sans-serif" font-size="9" font-weight="600" fill="#0969da" text-anchor="middle">Semantic</text>
<text x="555.00" y="414.00" font-family="ui-sans-serif, -apple-system, BlinkMacSystemFont, 'Segoe UI', Helvetica, Arial, sans-serif" font-size="11" font-weight="500" fill="#1f2328" text-anchor="middle">Jan</text>
<text x="555.00" y="428.00" font-family="ui-sans-serif, -apple-system, BlinkMacSystemFont, 'Segoe UI', Helvetica, Arial, sans-serif" font-size="9" font-weight="400" fill="#8c959f" text-anchor="middle">&#x27;26</text>
<rect x="592.00" y="378.08" width="58.00" height="17.92" fill="url(#g_quant-optuna)"><title>Quant Strategy &amp; Optuna: 16 commits in 2026-02</title></rect>
<path d="M592.00,378.08 L592.00,371.00 Q592.00,368.00 595.00,368.00 L647.00,368.00 Q650.00,368.00 650.00,371.00 L650.00,378.08 Z" fill="url(#g_semantic-dax)"><title>Semantic Model &amp; DAX: 9 commits in 2026-02</title></path>
<text x="621.00" y="364.00" font-family="ui-sans-serif, -apple-system, BlinkMacSystemFont, 'Segoe UI', Helvetica, Arial, sans-serif" font-size="10" font-weight="600" fill="#1f2328" text-anchor="middle">25</text>
<text x="621.00" y="414.00" font-family="ui-sans-serif, -apple-system, BlinkMacSystemFont, 'Segoe UI', Helvetica, Arial, sans-serif" font-size="11" font-weight="500" fill="#1f2328" text-anchor="middle">Feb</text>
<rect x="658.00" y="363.52" width="58.00" height="32.48" fill="url(#g_agent-orchestration)"><title>Agent Orchestration: 29 commits in 2026-03</title></rect>
<rect x="658.00" y="357.92" width="58.00" height="5.60" fill="url(#g_llm-eval-contracts)"><title>LLM Eval &amp; Contracts: 5 commits in 2026-03</title></rect>
<rect x="658.00" y="338.88" width="58.00" height="19.04" fill="url(#g_quant-optuna)"><title>Quant Strategy &amp; Optuna: 17 commits in 2026-03</title></rect>
<path d="M658.00,338.88 L658.00,317.24 Q658.00,314.24 661.00,314.24 L713.00,314.24 Q716.00,314.24 716.00,317.24 L716.00,338.88 Z" fill="url(#g_semantic-dax)"><title>Semantic Model &amp; DAX: 22 commits in 2026-03</title></path>
<text x="687.00" y="310.24" font-family="ui-sans-serif, -apple-system, BlinkMacSystemFont, 'Segoe UI', Helvetica, Arial, sans-serif" font-size="10" font-weight="600" fill="#1f2328" text-anchor="middle">73</text>
<text x="687.00" y="298.24" font-family="ui-sans-serif, -apple-system, BlinkMacSystemFont, 'Segoe UI', Helvetica, Arial, sans-serif" font-size="9" font-weight="600" fill="#6f42c1" text-anchor="middle">Agent</text>
<text x="687.00" y="414.00" font-family="ui-sans-serif, -apple-system, BlinkMacSystemFont, 'Segoe UI', Helvetica, Arial, sans-serif" font-size="11" font-weight="500" fill="#1f2328" text-anchor="middle">Mar</text>
<rect x="724.00" y="343.36" width="58.00" height="52.64" fill="url(#g_agent-orchestration)"><title>Agent Orchestration: 47 commits in 2026-04</title></rect>
<rect x="724.00" y="325.44" width="58.00" height="17.92" fill="url(#g_llm-eval-contracts)"><title>LLM Eval &amp; Contracts: 16 commits in 2026-04</title></rect>
<rect x="724.00" y="316.48" width="58.00" height="8.96" fill="url(#g_quant-optuna)"><title>Quant Strategy &amp; Optuna: 8 commits in 2026-04</title></rect>
<rect x="724.00" y="307.52" width="58.00" height="8.96" fill="url(#g_live-trading)"><title>Live Trading Ops: 8 commits in 2026-04</title></rect>
<path d="M724.00,307.52 L724.00,283.64 Q724.00,280.64 727.00,280.64 L779.00,280.64 Q782.00,280.64 782.00,283.64 L782.00,307.52 Z" fill="url(#g_content-methodology)"><title>Content &amp; Methodology: 24 commits in 2026-04</title></path>
<text x="753.00" y="276.64" font-family="ui-sans-serif, -apple-system, BlinkMacSystemFont, 'Segoe UI', Helvetica, Arial, sans-serif" font-size="10" font-weight="600" fill="#1f2328" text-anchor="middle">103</text>
<text x="753.00" y="264.64" font-family="ui-sans-serif, -apple-system, BlinkMacSystemFont, 'Segoe UI', Helvetica, Arial, sans-serif" font-size="9" font-weight="600" fill="#6f42c1" text-anchor="middle">Agent</text>
<text x="753.00" y="414.00" font-family="ui-sans-serif, -apple-system, BlinkMacSystemFont, 'Segoe UI', Helvetica, Arial, sans-serif" font-size="11" font-weight="500" fill="#1f2328" text-anchor="middle">Apr</text>
<rect x="790.00" y="384.80" width="58.00" height="11.20" fill="url(#g_agent-orchestration)"><title>Agent Orchestration: 10 commits in 2026-05</title></rect>
<rect x="790.00" y="382.56" width="58.00" height="2.24" fill="url(#g_llm-eval-contracts)"><title>LLM Eval &amp; Contracts: 2 commits in 2026-05</title></rect>
<rect x="790.00" y="380.32" width="58.00" height="2.24" fill="url(#g_quant-optuna)"><title>Quant Strategy &amp; Optuna: 2 commits in 2026-05</title></rect>
<rect x="790.00" y="379.20" width="58.00" height="1.12" fill="url(#g_backtest-mcs)"><title>Backtest &amp; MCS Research: 1 commits in 2026-05</title></rect>
<path d="M790.00,379.20 L790.00,349.72 Q790.00,346.72 793.00,346.72 L845.00,346.72 Q848.00,346.72 848.00,349.72 L848.00,379.20 Z" fill="url(#g_content-methodology)"><title>Content &amp; Methodology: 29 commits in 2026-05</title></path>
<text x="819.00" y="342.72" font-family="ui-sans-serif, -apple-system, BlinkMacSystemFont, 'Segoe UI', Helvetica, Arial, sans-serif" font-size="10" font-weight="600" fill="#1f2328" text-anchor="middle">44</text>
<text x="819.00" y="330.72" font-family="ui-sans-serif, -apple-system, BlinkMacSystemFont, 'Segoe UI', Helvetica, Arial, sans-serif" font-size="9" font-weight="600" fill="#57606a" text-anchor="middle">Content</text>
<text x="819.00" y="414.00" font-family="ui-sans-serif, -apple-system, BlinkMacSystemFont, 'Segoe UI', Helvetica, Arial, sans-serif" font-size="11" font-weight="500" fill="#1f2328" text-anchor="middle">May</text>
<line x1="64.00" y1="396.00" x2="848.00" y2="396.00" stroke="#1f2328" stroke-width="1"/>
<rect x="64.00" y="472.00" width="12" height="12" rx="2.5" fill="#6f42c1"/>
<text x="84.00" y="482.00" font-family="ui-sans-serif, -apple-system, BlinkMacSystemFont, 'Segoe UI', Helvetica, Arial, sans-serif" font-size="11" font-weight="600" fill="#1f2328" text-anchor="start">Agent Orchestration</text>
<rect x="260.00" y="489.00" width="110.00" height="1" fill="#d0d7de"/>
<rect x="260.00" y="471.72" width="7.79" height="18.28" fill="#6f42c1" opacity="0.9"/>
<rect x="269.29" y="468.00" width="7.79" height="22.00" fill="#6f42c1" opacity="0.9"/>
<rect x="278.58" y="490.00" width="7.79" height="0.00" fill="#6f42c1" opacity="0.9"/>
<rect x="287.88" y="490.00" width="7.79" height="0.00" fill="#6f42c1" opacity="0.9"/>
<rect x="297.17" y="490.00" width="7.79" height="0.00" fill="#6f42c1" opacity="0.9"/>
<rect x="306.46" y="490.00" width="7.79" height="0.00" fill="#6f42c1" opacity="0.9"/>
<rect x="315.75" y="487.29" width="7.79" height="2.71" fill="#6f42c1" opacity="0.9"/>
<rect x="325.04" y="490.00" width="7.79" height="0.00" fill="#6f42c1" opacity="0.9"/>
<rect x="334.33" y="490.00" width="7.79" height="0.00" fill="#6f42c1" opacity="0.9"/>
<rect x="343.62" y="480.18" width="7.79" height="9.82" fill="#6f42c1" opacity="0.9"/>
<rect x="352.92" y="474.09" width="7.79" height="15.91" fill="#6f42c1" opacity="0.9"/>
<rect x="362.21" y="486.62" width="7.79" height="3.38" fill="#6f42c1" opacity="0.9"/>
<text x="440.00" y="482.00" font-family="ui-sans-serif, -apple-system, BlinkMacSystemFont, 'Segoe UI', Helvetica, Arial, sans-serif" font-size="11" font-weight="400" fill="#656d76" text-anchor="end">213 · 23%</text>
<rect x="64.00" y="502.00" width="12" height="12" rx="2.5" fill="#bf3989"/>
<text x="84.00" y="512.00" font-family="ui-sans-serif, -apple-system, BlinkMacSystemFont, 'Segoe UI', Helvetica, Arial, sans-serif" font-size="11" font-weight="600" fill="#1f2328" text-anchor="start">LLM Eval &amp; Contracts</text>
<rect x="260.00" y="519.00" width="110.00" height="1" fill="#d0d7de"/>
<rect x="260.00" y="520.00" width="7.79" height="0.00" fill="#bf3989" opacity="0.9"/>
<rect x="269.29" y="520.00" width="7.79" height="0.00" fill="#bf3989" opacity="0.9"/>
<rect x="278.58" y="520.00" width="7.79" height="0.00" fill="#bf3989" opacity="0.9"/>
<rect x="287.88" y="520.00" width="7.79" height="0.00" fill="#bf3989" opacity="0.9"/>
<rect x="297.17" y="520.00" width="7.79" height="0.00" fill="#bf3989" opacity="0.9"/>
<rect x="306.46" y="520.00" width="7.79" height="0.00" fill="#bf3989" opacity="0.9"/>
<rect x="315.75" y="520.00" width="7.79" height="0.00" fill="#bf3989" opacity="0.9"/>
<rect x="325.04" y="520.00" width="7.79" height="0.00" fill="#bf3989" opacity="0.9"/>
<rect x="334.33" y="520.00" width="7.79" height="0.00" fill="#bf3989" opacity="0.9"/>
<rect x="343.62" y="513.12" width="7.79" height="6.88" fill="#bf3989" opacity="0.9"/>
<rect x="352.92" y="498.00" width="7.79" height="22.00" fill="#bf3989" opacity="0.9"/>
<rect x="362.21" y="517.25" width="7.79" height="2.75" fill="#bf3989" opacity="0.9"/>
<text x="440.00" y="512.00" font-family="ui-sans-serif, -apple-system, BlinkMacSystemFont, 'Segoe UI', Helvetica, Arial, sans-serif" font-size="11" font-weight="400" fill="#656d76" text-anchor="end">23 · 2%</text>
<rect x="64.00" y="532.00" width="12" height="12" rx="2.5" fill="#1a7f37"/>
<text x="84.00" y="542.00" font-family="ui-sans-serif, -apple-system, BlinkMacSystemFont, 'Segoe UI', Helvetica, Arial, sans-serif" font-size="11" font-weight="600" fill="#1f2328" text-anchor="start">Quant Strategy &amp; Optuna</text>
<rect x="260.00" y="549.00" width="110.00" height="1" fill="#d0d7de"/>
<rect x="260.00" y="549.20" width="7.79" height="0.80" fill="#1a7f37" opacity="0.9"/>
<rect x="269.29" y="539.40" width="7.79" height="10.60" fill="#1a7f37" opacity="0.9"/>
<rect x="278.58" y="528.00" width="7.79" height="22.00" fill="#1a7f37" opacity="0.9"/>
<rect x="287.88" y="546.29" width="7.79" height="3.71" fill="#1a7f37" opacity="0.9"/>
<rect x="297.17" y="549.73" width="7.79" height="0.27" fill="#1a7f37" opacity="0.9"/>
<rect x="306.46" y="550.00" width="7.79" height="0.00" fill="#1a7f37" opacity="0.9"/>
<rect x="315.75" y="550.00" width="7.79" height="0.00" fill="#1a7f37" opacity="0.9"/>
<rect x="325.04" y="548.67" width="7.79" height="1.33" fill="#1a7f37" opacity="0.9"/>
<rect x="334.33" y="545.76" width="7.79" height="4.24" fill="#1a7f37" opacity="0.9"/>
<rect x="343.62" y="545.49" width="7.79" height="4.51" fill="#1a7f37" opacity="0.9"/>
<rect x="352.92" y="547.88" width="7.79" height="2.12" fill="#1a7f37" opacity="0.9"/>
<rect x="362.21" y="549.47" width="7.79" height="0.53" fill="#1a7f37" opacity="0.9"/>
<text x="440.00" y="542.00" font-family="ui-sans-serif, -apple-system, BlinkMacSystemFont, 'Segoe UI', Helvetica, Arial, sans-serif" font-size="11" font-weight="400" fill="#656d76" text-anchor="end">189 · 20%</text>
<rect x="64.00" y="562.00" width="12" height="12" rx="2.5" fill="#2da44e"/>
<text x="84.00" y="572.00" font-family="ui-sans-serif, -apple-system, BlinkMacSystemFont, 'Segoe UI', Helvetica, Arial, sans-serif" font-size="11" font-weight="600" fill="#1f2328" text-anchor="start">Live Trading Ops</text>
<rect x="260.00" y="579.00" width="110.00" height="1" fill="#d0d7de"/>
<rect x="260.00" y="580.00" width="7.79" height="0.00" fill="#2da44e" opacity="0.9"/>
<rect x="269.29" y="558.00" width="7.79" height="22.00" fill="#2da44e" opacity="0.9"/>
<rect x="278.58" y="575.60" width="7.79" height="4.40" fill="#2da44e" opacity="0.9"/>
<rect x="287.88" y="577.80" width="7.79" height="2.20" fill="#2da44e" opacity="0.9"/>
<rect x="297.17" y="580.00" width="7.79" height="0.00" fill="#2da44e" opacity="0.9"/>
<rect x="306.46" y="580.00" width="7.79" height="0.00" fill="#2da44e" opacity="0.9"/>
<rect x="315.75" y="580.00" width="7.79" height="0.00" fill="#2da44e" opacity="0.9"/>
<rect x="325.04" y="580.00" width="7.79" height="0.00" fill="#2da44e" opacity="0.9"/>
<rect x="334.33" y="580.00" width="7.79" height="0.00" fill="#2da44e" opacity="0.9"/>
<rect x="343.62" y="580.00" width="7.79" height="0.00" fill="#2da44e" opacity="0.9"/>
<rect x="352.92" y="571.20" width="7.79" height="8.80" fill="#2da44e" opacity="0.9"/>
<rect x="362.21" y="580.00" width="7.79" height="0.00" fill="#2da44e" opacity="0.9"/>
<text x="440.00" y="572.00" font-family="ui-sans-serif, -apple-system, BlinkMacSystemFont, 'Segoe UI', Helvetica, Arial, sans-serif" font-size="11" font-weight="400" fill="#656d76" text-anchor="end">34 · 4%</text>
<rect x="64.00" y="592.00" width="12" height="12" rx="2.5" fill="#bf8700"/>
<text x="84.00" y="602.00" font-family="ui-sans-serif, -apple-system, BlinkMacSystemFont, 'Segoe UI', Helvetica, Arial, sans-serif" font-size="11" font-weight="600" fill="#1f2328" text-anchor="start">Backtest &amp; MCS Research</text>
<rect x="260.00" y="609.00" width="110.00" height="1" fill="#d0d7de"/>
<rect x="260.00" y="610.00" width="7.79" height="0.00" fill="#bf8700" opacity="0.9"/>
<rect x="269.29" y="609.41" width="7.79" height="0.59" fill="#bf8700" opacity="0.9"/>
<rect x="278.58" y="610.00" width="7.79" height="0.00" fill="#bf8700" opacity="0.9"/>
<rect x="287.88" y="610.00" width="7.79" height="0.00" fill="#bf8700" opacity="0.9"/>
<rect x="297.17" y="588.00" width="7.79" height="22.00" fill="#bf8700" opacity="0.9"/>
<rect x="306.46" y="607.62" width="7.79" height="2.38" fill="#bf8700" opacity="0.9"/>
<rect x="315.75" y="606.43" width="7.79" height="3.57" fill="#bf8700" opacity="0.9"/>
<rect x="325.04" y="610.00" width="7.79" height="0.00" fill="#bf8700" opacity="0.9"/>
<rect x="334.33" y="610.00" width="7.79" height="0.00" fill="#bf8700" opacity="0.9"/>
<rect x="343.62" y="610.00" width="7.79" height="0.00" fill="#bf8700" opacity="0.9"/>
<rect x="352.92" y="610.00" width="7.79" height="0.00" fill="#bf8700" opacity="0.9"/>
<rect x="362.21" y="609.41" width="7.79" height="0.59" fill="#bf8700" opacity="0.9"/>
<text x="440.00" y="602.00" font-family="ui-sans-serif, -apple-system, BlinkMacSystemFont, 'Segoe UI', Helvetica, Arial, sans-serif" font-size="11" font-weight="400" fill="#656d76" text-anchor="end">49 · 5%</text>
<rect x="472.00" y="472.00" width="12" height="12" rx="2.5" fill="#1b7c83"/>
<text x="492.00" y="482.00" font-family="ui-sans-serif, -apple-system, BlinkMacSystemFont, 'Segoe UI', Helvetica, Arial, sans-serif" font-size="11" font-weight="600" fill="#1f2328" text-anchor="start">Time-Series ML</text>
<rect x="668.00" y="489.00" width="110.00" height="1" fill="#d0d7de"/>
<rect x="668.00" y="490.00" width="7.79" height="0.00" fill="#1b7c83" opacity="0.9"/>
<rect x="677.29" y="468.00" width="7.79" height="22.00" fill="#1b7c83" opacity="0.9"/>
<rect x="686.58" y="483.93" width="7.79" height="6.07" fill="#1b7c83" opacity="0.9"/>
<rect x="695.88" y="490.00" width="7.79" height="0.00" fill="#1b7c83" opacity="0.9"/>
<rect x="705.17" y="486.21" width="7.79" height="3.79" fill="#1b7c83" opacity="0.9"/>
<rect x="714.46" y="490.00" width="7.79" height="0.00" fill="#1b7c83" opacity="0.9"/>
<rect x="723.75" y="490.00" width="7.79" height="0.00" fill="#1b7c83" opacity="0.9"/>
<rect x="733.04" y="490.00" width="7.79" height="0.00" fill="#1b7c83" opacity="0.9"/>
<rect x="742.33" y="490.00" width="7.79" height="0.00" fill="#1b7c83" opacity="0.9"/>
<rect x="751.62" y="490.00" width="7.79" height="0.00" fill="#1b7c83" opacity="0.9"/>
<rect x="760.92" y="490.00" width="7.79" height="0.00" fill="#1b7c83" opacity="0.9"/>
<rect x="770.21" y="490.00" width="7.79" height="0.00" fill="#1b7c83" opacity="0.9"/>
<text x="848.00" y="482.00" font-family="ui-sans-serif, -apple-system, BlinkMacSystemFont, 'Segoe UI', Helvetica, Arial, sans-serif" font-size="11" font-weight="400" fill="#656d76" text-anchor="end">42 · 4%</text>
<rect x="472.00" y="502.00" width="12" height="12" rx="2.5" fill="#0969da"/>
<text x="492.00" y="512.00" font-family="ui-sans-serif, -apple-system, BlinkMacSystemFont, 'Segoe UI', Helvetica, Arial, sans-serif" font-size="11" font-weight="600" fill="#1f2328" text-anchor="start">Semantic Model &amp; DAX</text>
<rect x="668.00" y="519.00" width="110.00" height="1" fill="#d0d7de"/>
<rect x="668.00" y="520.00" width="7.79" height="0.00" fill="#0969da" opacity="0.9"/>
<rect x="677.29" y="520.00" width="7.79" height="0.00" fill="#0969da" opacity="0.9"/>
<rect x="686.58" y="520.00" width="7.79" height="0.00" fill="#0969da" opacity="0.9"/>
<rect x="695.88" y="520.00" width="7.79" height="0.00" fill="#0969da" opacity="0.9"/>
<rect x="705.17" y="509.00" width="7.79" height="11.00" fill="#0969da" opacity="0.9"/>
<rect x="714.46" y="498.00" width="7.79" height="22.00" fill="#0969da" opacity="0.9"/>
<rect x="723.75" y="512.52" width="7.79" height="7.48" fill="#0969da" opacity="0.9"/>
<rect x="733.04" y="505.92" width="7.79" height="14.08" fill="#0969da" opacity="0.9"/>
<rect x="742.33" y="516.04" width="7.79" height="3.96" fill="#0969da" opacity="0.9"/>
<rect x="751.62" y="510.32" width="7.79" height="9.68" fill="#0969da" opacity="0.9"/>
<rect x="760.92" y="520.00" width="7.79" height="0.00" fill="#0969da" opacity="0.9"/>
<rect x="770.21" y="520.00" width="7.79" height="0.00" fill="#0969da" opacity="0.9"/>
<text x="848.00" y="512.00" font-family="ui-sans-serif, -apple-system, BlinkMacSystemFont, 'Segoe UI', Helvetica, Arial, sans-serif" font-size="11" font-weight="400" fill="#656d76" text-anchor="end">155 · 17%</text>
<rect x="472.00" y="532.00" width="12" height="12" rx="2.5" fill="#218bff"/>
<text x="492.00" y="542.00" font-family="ui-sans-serif, -apple-system, BlinkMacSystemFont, 'Segoe UI', Helvetica, Arial, sans-serif" font-size="11" font-weight="600" fill="#1f2328" text-anchor="start">Data Pipeline &amp; Schema</text>
<rect x="668.00" y="549.00" width="110.00" height="1" fill="#d0d7de"/>
<rect x="668.00" y="550.00" width="7.79" height="0.00" fill="#218bff" opacity="0.9"/>
<rect x="677.29" y="550.00" width="7.79" height="0.00" fill="#218bff" opacity="0.9"/>
<rect x="686.58" y="550.00" width="7.79" height="0.00" fill="#218bff" opacity="0.9"/>
<rect x="695.88" y="542.52" width="7.79" height="7.48" fill="#218bff" opacity="0.9"/>
<rect x="705.17" y="528.00" width="7.79" height="22.00" fill="#218bff" opacity="0.9"/>
<rect x="714.46" y="550.00" width="7.79" height="0.00" fill="#218bff" opacity="0.9"/>
<rect x="723.75" y="550.00" width="7.79" height="0.00" fill="#218bff" opacity="0.9"/>
<rect x="733.04" y="550.00" width="7.79" height="0.00" fill="#218bff" opacity="0.9"/>
<rect x="742.33" y="550.00" width="7.79" height="0.00" fill="#218bff" opacity="0.9"/>
<rect x="751.62" y="550.00" width="7.79" height="0.00" fill="#218bff" opacity="0.9"/>
<rect x="760.92" y="550.00" width="7.79" height="0.00" fill="#218bff" opacity="0.9"/>
<rect x="770.21" y="550.00" width="7.79" height="0.00" fill="#218bff" opacity="0.9"/>
<text x="848.00" y="542.00" font-family="ui-sans-serif, -apple-system, BlinkMacSystemFont, 'Segoe UI', Helvetica, Arial, sans-serif" font-size="11" font-weight="400" fill="#656d76" text-anchor="end">67 · 7%</text>
<rect x="472.00" y="562.00" width="12" height="12" rx="2.5" fill="#bc4c00"/>
<text x="492.00" y="572.00" font-family="ui-sans-serif, -apple-system, BlinkMacSystemFont, 'Segoe UI', Helvetica, Arial, sans-serif" font-size="11" font-weight="600" fill="#1f2328" text-anchor="start">AST &amp; Code Tooling</text>
<rect x="668.00" y="579.00" width="110.00" height="1" fill="#d0d7de"/>
<rect x="668.00" y="580.00" width="7.79" height="0.00" fill="#bc4c00" opacity="0.9"/>
<rect x="677.29" y="558.00" width="7.79" height="22.00" fill="#bc4c00" opacity="0.9"/>
<rect x="686.58" y="580.00" width="7.79" height="0.00" fill="#bc4c00" opacity="0.9"/>
<rect x="695.88" y="580.00" width="7.79" height="0.00" fill="#bc4c00" opacity="0.9"/>
<rect x="705.17" y="580.00" width="7.79" height="0.00" fill="#bc4c00" opacity="0.9"/>
<rect x="714.46" y="580.00" width="7.79" height="0.00" fill="#bc4c00" opacity="0.9"/>
<rect x="723.75" y="580.00" width="7.79" height="0.00" fill="#bc4c00" opacity="0.9"/>
<rect x="733.04" y="580.00" width="7.79" height="0.00" fill="#bc4c00" opacity="0.9"/>
<rect x="742.33" y="580.00" width="7.79" height="0.00" fill="#bc4c00" opacity="0.9"/>
<rect x="751.62" y="580.00" width="7.79" height="0.00" fill="#bc4c00" opacity="0.9"/>
<rect x="760.92" y="580.00" width="7.79" height="0.00" fill="#bc4c00" opacity="0.9"/>
<rect x="770.21" y="580.00" width="7.79" height="0.00" fill="#bc4c00" opacity="0.9"/>
<text x="848.00" y="572.00" font-family="ui-sans-serif, -apple-system, BlinkMacSystemFont, 'Segoe UI', Helvetica, Arial, sans-serif" font-size="11" font-weight="400" fill="#656d76" text-anchor="end">52 · 6%</text>
<rect x="472.00" y="592.00" width="12" height="12" rx="2.5" fill="#57606a"/>
<text x="492.00" y="602.00" font-family="ui-sans-serif, -apple-system, BlinkMacSystemFont, 'Segoe UI', Helvetica, Arial, sans-serif" font-size="11" font-weight="600" fill="#1f2328" text-anchor="start">Content &amp; Methodology</text>
<rect x="668.00" y="609.00" width="110.00" height="1" fill="#d0d7de"/>
<rect x="668.00" y="588.00" width="7.79" height="22.00" fill="#57606a" opacity="0.9"/>
<rect x="677.29" y="608.82" width="7.79" height="1.18" fill="#57606a" opacity="0.9"/>
<rect x="686.58" y="610.00" width="7.79" height="0.00" fill="#57606a" opacity="0.9"/>
<rect x="695.88" y="610.00" width="7.79" height="0.00" fill="#57606a" opacity="0.9"/>
<rect x="705.17" y="610.00" width="7.79" height="0.00" fill="#57606a" opacity="0.9"/>
<rect x="714.46" y="610.00" width="7.79" height="0.00" fill="#57606a" opacity="0.9"/>
<rect x="723.75" y="610.00" width="7.79" height="0.00" fill="#57606a" opacity="0.9"/>
<rect x="733.04" y="610.00" width="7.79" height="0.00" fill="#57606a" opacity="0.9"/>
<rect x="742.33" y="610.00" width="7.79" height="0.00" fill="#57606a" opacity="0.9"/>
<rect x="751.62" y="610.00" width="7.79" height="0.00" fill="#57606a" opacity="0.9"/>
<rect x="760.92" y="600.57" width="7.79" height="9.43" fill="#57606a" opacity="0.9"/>
<rect x="770.21" y="598.61" width="7.79" height="11.39" fill="#57606a" opacity="0.9"/>
<text x="848.00" y="602.00" font-family="ui-sans-serif, -apple-system, BlinkMacSystemFont, 'Segoe UI', Helvetica, Arial, sans-serif" font-size="11" font-weight="400" fill="#656d76" text-anchor="end">112 · 12%</text>
<text x="64.00" y="646.00" font-family="ui-sans-serif, -apple-system, BlinkMacSystemFont, 'Segoe UI', Helvetica, Arial, sans-serif" font-size="10" font-weight="400" fill="#8c959f" text-anchor="start">All-time corpus: 1,673 non-merge commits since first owned repo. Private repo names redacted.</text>
</svg>
